<svg xmlns="http://www.w3.org/2000/svg" x="0px" y="0px" width="100" height="100" viewBox="0,0,256,256">
<g fill="none" fill-rule="nonzero" stroke="none" stroke-width="1" stroke-linecap="none" stroke-linejoin="none" stroke-miterlimit="10" stroke-dasharray="" stroke-dashoffset="0" font-family="none" font-weight="none" font-size="none" text-anchor="none" style="mix-blend-mode: normal"><g transform="scale(2.56,2.56)"><path d="M68,19h-39c-6.6,0 -12,5.4 -12,12v39c0,6.6 5.4,12 12,12h39c6.6,0 12,-5.4 12,-12v-39c0,-6.6 -5.4,-12 -12,-12z" fill= "#f87e72" stroke="none" stroke-linecap="butt" stroke-linejoin="miter"></path><path d="M80,35v-4.012c0,-6.6 -5.4,-12 -12,-12h-39c-6.6,0 -12,5.4 -12,12v4.012z" fill="#ffffff" stroke="none" stroke-linecap="butt" stroke-linejoin="miter"></path><path d="M68,82.988h-39c-7.18,0 -13,-5.82 -13,-13v-39c0,-7.18 5.82,-13 13,-13h39c7.18,0 13,5.82 13,13v39c0,7.18 -5.821,13 -13,13zM18,30.988v39c0,6.075 4.925,11 11,11h39c6.075,0 11,-4.925 11,-11v-39c0,-6.075 -4.925,-11 -11,-11h-39c-6.076,0 -11,4.925 -11,11z" fill="#1f212b" stroke="none" stroke-linecap="butt" stroke-linejoin="miter"></path><path d="M17.5,34.5h62" fill="none" stroke="#1f212b" stroke-linecap="round" stroke-linejoin="round"></path><path d="M36.5,50.5h43.5" fill="none" stroke="#1f212b" stroke-linecap="round" stroke-linejoin="round"></path><path d="M29.483,50.5h3.017" fill="none" stroke="#1f212b" stroke-linecap="round" stroke-linejoin="round"></path><path d="M18,50.5h8.5" fill="none" stroke="#1f212b" stroke-linecap="round" stroke-linejoin="round"></path><path d="M71.5,66.5h8.5" fill="none" stroke="#1f212b" stroke-linecap="round" stroke-linejoin="round"></path><path d="M65.5,66.5h2" fill="none" stroke="#1f212b" stroke-linecap="round" stroke-linejoin="round"></path><path d="M59.5,66.5h3" fill="none" stroke="#1f212b" stroke-linecap="round" stroke-linejoin="round"></path><path d="M18,66.5h37.5" fill="none" stroke="#1f212b" stroke-linecap="round" stroke-linejoin="round"></path><path d="M20.5,37.5h1" fill="none" stroke="#1f212b" stroke-linecap="round" stroke-linejoin="round"></path><path d="M25.5,37.5h1" fill="none" stroke="#1f212b" stroke-linecap="round" stroke-linejoin="round"></path><path d="M30.5,37.5h1" fill="none" stroke="#1f212b" stroke-linecap="round" stroke-linejoin="round"></path><path d="M35.5,37.5h1" fill="none" stroke="#1f212b" stroke-linecap="round" stroke-linejoin="round"></path><path d="M40.5,37.5h1" fill="none" stroke="#1f212b" stroke-linecap="round" stroke-linejoin="round"></path><path d="M45.5,37.5h1" fill="none" stroke="#1f212b" stroke-linecap="round" stroke-linejoin="round"></path><path d="M50.5,37.5h1" fill="none" stroke="#1f212b" stroke-linecap="round" stroke-linejoin="round"></path><path d="M55.5,37.5h1" fill="none" stroke="#1f212b" stroke-linecap="round" stroke-linejoin="round"></path><path d="M60.5,37.5h1" fill="none" stroke="#1f212b" stroke-linecap="round" stroke-linejoin="round"></path><path d="M65.5,37.5h1" fill="none" stroke="#1f212b" stroke-linecap="round" stroke-linejoin="round"></path><path d="M70.5,37.5h1" fill="none" stroke="#1f212b" stroke-linecap="round" stroke-linejoin="round"></path><path d="M75.5,37.5h1" fill="none" stroke="#1f212b" stroke-linecap="round" stroke-linejoin="round"></path></g></g>
</svg>